<svg width="52" height="51" viewBox="0 0 52 51" fill="none" xmlns="http://www.w3.org/2000/svg">
<g clip-path="url(#clip0_179_149)">
<path d="M52 25.5C52 11.4168 40.3593 0 26 0C11.6407 0 0 11.4168 0 25.5C0 38.2277 9.50787 48.7773 21.9375 50.6902V32.8711H15.3359V25.5H21.9375V19.882C21.9375 13.4911 25.8192 9.96094 31.7582 9.96094C34.6028 9.96094 37.5781 10.459 37.5781 10.459V16.7344H34.2997C31.0698 16.7344 30.0625 18.7001 30.0625 20.7168V25.5H37.2734L36.1207 32.8711H30.0625V50.6902C42.4921 48.7773 52 38.2279 52 25.5Z" fill="black"/>
<path d="M36.1207 32.8711L37.2734 25.5H30.0625V20.7168C30.0625 18.6999 31.0698 16.7344 34.2997 16.7344H37.5781V10.459C37.5781 10.459 34.6028 9.96094 31.758 9.96094C25.8192 9.96094 21.9375 13.4911 21.9375 19.882V25.5H15.3359V32.8711H21.9375V50.6902C23.2814 50.8967 24.6397 51.0003 26 51C27.3603 51.0003 28.7186 50.8967 30.0625 50.6902V32.8711H36.1207Z" fill="white"/>
</g>
<defs>
<clipPath id="clip0_179_149">
<rect width="52" height="51" fill="white"/>
</clipPath>
</defs>
</svg>
