<svg width="16" height="17" viewBox="0 0 16 17" fill="none" xmlns="http://www.w3.org/2000/svg">
<path d="M7.04944 3.40982C7.34975 2.49052 8.65025 2.49052 8.95057 3.40982L9.21284 4.21268C9.61588 5.44645 10.7666 6.28111 12.0645 6.28111H12.9089C13.8789 6.28111 14.2808 7.52347 13.4946 8.09163L12.8301 8.57182C11.7729 9.33574 11.3305 10.6952 11.7355 11.935L11.9902 12.7144C12.2908 13.6348 11.2386 14.4026 10.4539 13.8355L9.75714 13.332C8.70831 12.5741 7.29169 12.5741 6.24287 13.332L5.54613 13.8355C4.76136 14.4026 3.70919 13.6348 4.00985 12.7144L4.26449 11.935C4.66949 10.6952 4.22706 9.33574 3.16993 8.57182L2.50543 8.09163C1.7192 7.52347 2.12111 6.28111 3.09114 6.28111H3.93546C5.23339 6.28111 6.38412 5.44645 6.78716 4.21269L7.04944 3.40982Z" fill="#5B616E"/>
</svg>
