<svg width="52" height="51" viewBox="0 0 52 51" fill="none" xmlns="http://www.w3.org/2000/svg">
<g clip-path="url(#clip0_179_152)">
<path d="M26 4.59478C32.9422 4.59478 33.7645 4.62068 36.506 4.7432C39.041 4.85675 40.4178 5.27212 41.3341 5.62136C42.5476 6.08394 43.4137 6.63657 44.3235 7.52887C45.2333 8.42118 45.7968 9.27064 46.2684 10.4608C46.6245 11.3595 47.048 12.7098 47.1638 15.1958C47.2887 17.8849 47.3151 18.6913 47.3151 25.5C47.3151 32.3087 47.2887 33.1153 47.1638 35.8042C47.048 38.2904 46.6245 39.6405 46.2684 40.5392C45.7968 41.7294 45.2333 42.579 44.3235 43.4713C43.4137 44.3636 42.5476 44.9163 41.3341 45.3786C40.4178 45.7279 39.041 46.1434 36.506 46.2568C33.7649 46.3795 32.9426 46.4054 26 46.4054C19.0574 46.4054 18.2349 46.3795 15.4938 46.2568C12.9588 46.1432 11.5822 45.7279 10.6659 45.3786C9.45242 44.9163 8.58609 44.3636 7.6763 43.4713C6.7665 42.5788 6.20303 41.7294 5.73158 40.5392C5.3755 39.6407 4.95178 38.2904 4.8362 35.8042C4.71108 33.1153 4.68467 32.3089 4.68467 25.5C4.68467 18.6911 4.71108 17.8849 4.8362 15.196C4.95198 12.7098 5.3755 11.3595 5.73158 10.4608C6.20303 9.27064 6.7665 8.42118 7.6763 7.52887C8.5863 6.63637 9.45242 6.08394 10.6659 5.62136C11.582 5.27212 12.9588 4.85675 15.4938 4.7432C18.2353 4.62068 19.0576 4.59478 26 4.59478ZM26 0C18.9388 0 18.0533 0.0292851 15.2803 0.153398C12.5127 0.277312 10.6226 0.708422 8.96898 1.33875C7.25908 1.99039 5.80917 2.86237 4.36373 4.28002C2.9183 5.69766 2.02942 7.11968 1.365 8.7965C0.722109 10.4185 0.28275 12.2723 0.156406 14.9864C0.0298594 17.7062 0 18.5746 0 25.5C0 32.4254 0.0298594 33.2938 0.156406 36.0136C0.28275 38.7279 0.722109 40.5817 1.365 42.2035C2.02922 43.8803 2.9183 45.3025 4.36373 46.7202C5.80917 48.1378 7.25908 49.0096 8.96898 49.6613C10.6228 50.2918 12.5127 50.7227 15.2801 50.8466C18.0533 50.9707 18.9388 51 26 51C33.0612 51 33.9467 50.9707 36.7197 50.8466C39.4871 50.7227 41.3772 50.2918 43.0308 49.6613C44.7407 49.0098 46.1906 48.1378 47.6361 46.7202C49.0815 45.3025 49.9706 43.8805 50.635 42.2035C51.2777 40.5815 51.7173 38.7279 51.8436 36.0138C51.9701 33.2938 52 32.4254 52 25.5C52 18.5746 51.9701 17.7062 51.8436 14.9864C51.7173 12.2723 51.2777 10.4185 50.635 8.7967C49.9706 7.11968 49.0815 5.69766 47.6361 4.28002C46.1906 2.86237 44.7407 1.9902 43.031 1.33875C41.3772 0.708422 39.4871 0.277312 36.7197 0.153398C33.9467 0.0292851 33.0612 0 26 0ZM26 12.4054C18.6262 12.4054 12.6486 18.2684 12.6486 25.5C12.6486 32.7316 18.6262 38.5946 26 38.5946C33.3736 38.5946 39.3514 32.732 39.3514 25.5C39.3514 18.2682 33.3736 12.4054 26 12.4054ZM26 34.0001C21.2136 34.0001 17.3333 30.1944 17.3333 25.5C17.3333 20.8056 21.2136 16.9999 26 16.9999C30.7864 16.9999 34.6667 20.8056 34.6667 25.5C34.6667 30.1944 30.7864 34.0001 26 34.0001ZM42.9987 11.888C42.9987 13.5782 41.602 14.948 39.8787 14.948C38.1554 14.948 36.7587 13.5782 36.7587 11.888C36.7587 10.1978 38.1556 8.82798 39.8787 8.82798C41.6018 8.82798 42.9987 10.198 42.9987 11.888Z" fill="#0A0A08"/>
</g>
<defs>
<clipPath id="clip0_179_152">
<rect width="52" height="51" fill="white"/>
</clipPath>
</defs>
</svg>
