<svg width="50" height="49" viewBox="0 0 50 49" fill="none" xmlns="http://www.w3.org/2000/svg">
<path d="M11.5797 0.154236L5.51922 1.66799L0.784378 12.7203L4.42547 15.1485L7.42891 9.14377L9.29375 9.6797L7.64547 26.0969H23.8188L24.825 16.4828L24.9234 15.5969H25.4156L24.825 9.6797L26.6953 9.14377L29.6922 15.1485L33.3344 12.7203L28.5984 1.66799L22.5391 0.154236C21.9375 0.577517 21.2047 0.833455 20.4063 1.02377C19.3781 1.26549 18.2188 1.37814 17.0594 1.37814C15.9 1.37814 14.7406 1.26549 13.7125 1.02377C12.9141 0.833455 12.1813 0.578611 11.5797 0.154236ZM26.6953 17.5656L26.5313 19.0969H46.0875L45.9234 17.5656H26.6953ZM26.3234 21.0656L23.4031 48.8469H30.2609L35.3469 25.1235H37.2719L42.3578 48.8469H49.2156L46.2953 21.0656H26.3234Z" fill="#271B1B"/>
</svg>
